<svg width="184" height="48" viewBox="0 0 184 48" fill="none" xmlns="http://www.w3.org/2000/svg">
<path d="M13.0601 37.2442C11.3125 37.2555 9.58153 36.8985 7.97664 36.1957C6.42455 35.5229 5.01361 34.5546 3.82 33.3428C2.61162 32.1214 1.65661 30.6663 1.01146 29.0635C0.330791 27.403 -0.0130953 25.62 0.000381303 23.8213C0.00733293 22.0321 0.372845 20.263 1.07465 18.6219C1.731 17.0251 2.68462 15.5721 3.88319 14.3425C5.08893 13.1299 6.5213 12.1744 8.096 11.5324C9.73865 10.8429 11.5004 10.4937 13.2778 10.5054C14.541 10.5042 15.7982 10.6818 17.0131 11.0332C18.2028 11.3709 19.3312 11.9007 20.3553 12.6023V10.8834H26.9905V47.3292H20.257V34.8477C19.2383 35.6214 18.1024 36.2213 16.8937 36.6237C15.6573 37.0398 14.3626 37.2493 13.0601 37.2442ZM6.69173 23.8641C6.68701 24.8597 6.87738 25.8462 7.25176 26.7663C7.62614 27.6864 8.17704 28.5216 8.87235 29.2232C9.56767 29.9249 10.3935 30.479 11.3017 30.8532C12.21 31.2274 13.1824 31.4142 14.1624 31.4029C15.3333 31.4191 16.4957 31.1985 17.5818 30.7538C18.5927 30.3383 19.5047 29.7086 20.257 28.9066V18.7717C19.5023 17.9848 18.59 17.3719 17.5818 16.9743C16.4929 16.5397 15.3324 16.3195 14.1624 16.3253C13.1798 16.3041 12.2031 16.4843 11.2905 16.855C10.3779 17.2257 9.5482 17.7794 8.85092 18.483C8.15365 19.1867 7.6031 20.0258 7.23212 20.9503C6.86115 21.8748 6.67736 22.8658 6.69173 23.8641Z" fill="#38352D"/>
<path d="M40.289 10.8831V26.0106C40.2541 26.7415 40.3648 27.472 40.6146 28.1583C40.8643 28.8446 41.248 29.4726 41.7424 30.0047C42.2484 30.511 42.8521 30.9055 43.5155 31.1633C44.1789 31.421 44.8877 31.5365 45.5971 31.5025C46.6593 31.5219 47.7117 31.2925 48.6725 30.832C49.5633 30.3895 50.3309 29.7275 50.9053 28.9063V10.8831H57.6388V36.8944H50.9263V34.7976C49.9479 35.63 48.8334 36.2818 47.6333 36.7233C46.3717 37.18 45.0407 37.407 43.7014 37.3937C42.3569 37.4389 41.0177 37.2034 39.7664 36.7016C38.5152 36.1998 37.3787 35.4425 36.4273 34.4766C35.4783 33.4934 34.7362 32.3244 34.2461 31.0406C33.756 29.7568 33.5282 28.3852 33.5766 27.0092V10.8831H40.289Z" fill="#38352D"/>
<path d="M67.7144 7.78789C67.2103 7.79521 66.7102 7.69703 66.2451 7.49948C65.7801 7.30192 65.36 7.00922 65.0112 6.63959C64.6479 6.2847 64.3602 5.85792 64.1658 5.38563C63.9714 4.91334 63.8743 4.40556 63.8807 3.89368C63.8756 3.38198 63.9732 2.87458 64.1675 2.40247C64.3619 1.93035 64.6489 1.50343 65.0112 1.14777C65.3645 0.784192 65.7854 0.495515 66.2494 0.298487C66.7135 0.101458 67.2114 0 67.7144 0C68.2173 0 68.7153 0.101458 69.1793 0.298487C69.6433 0.495515 70.0643 0.784192 70.4176 1.14777C70.7798 1.50343 71.0669 1.93035 71.2612 2.40247C71.4556 2.87458 71.5532 3.38198 71.548 3.89368C71.5544 4.40556 71.4574 4.91334 71.2629 5.38563C71.0685 5.85792 70.7808 6.2847 70.4176 6.63959C70.0687 7.00922 69.6487 7.30192 69.1836 7.49948C68.7185 7.69703 68.2184 7.79521 67.7144 7.78789ZM71.1057 10.8833V36.8946H64.3722V10.8833H71.1057Z" fill="#38352D"/>
<path d="M76.5121 36.8948V32.052L89.3892 16.625H76.6104V10.9192H98.0395V15.762L85.0641 31.1534H98.3344V36.8948H76.5121Z" fill="#38352D"/>
<path d="M102.884 36.8948V32.052L115.761 16.625H102.983V10.9192H124.412V15.762L111.457 31.1534H124.728V36.8948H102.884Z" fill="#38352D"/>
<path d="M152.399 33.6429C149.514 36.1462 145.821 37.4796 142.028 37.3873C140.165 37.404 138.316 37.0502 136.587 36.346C134.963 35.6863 133.479 34.718 132.212 33.4931C130.975 32.2773 129.989 30.8223 129.313 29.2138C128.604 27.533 128.245 25.7215 128.259 23.8931C128.257 22.1001 128.6 20.3239 129.27 18.6652C129.924 17.0667 130.878 15.6131 132.079 14.3858C133.285 13.1625 134.716 12.193 136.292 11.5329C137.934 10.8304 139.699 10.4737 141.481 10.4845C143.199 10.469 144.901 10.8264 146.473 11.5329C147.994 12.2224 149.365 13.2142 150.503 14.45C151.663 15.7341 152.565 17.2363 153.157 18.872C153.809 20.6513 154.135 22.5367 154.119 24.4352V26.2325H135.049C135.471 27.8134 136.406 29.2033 137.703 30.1766C139.037 31.1824 140.662 31.7093 142.323 31.6744C143.396 31.6844 144.461 31.4983 145.469 31.1252C146.402 30.7943 147.256 30.2669 147.975 29.5775L152.399 33.6429ZM141.291 16.0762C139.838 16.047 138.423 16.5538 137.31 17.5026C136.166 18.498 135.358 19.8324 135 21.3184H147.533C147.143 19.8533 146.328 18.5413 145.195 17.5525C144.117 16.5881 142.727 16.0623 141.291 16.0762Z" fill="#38352D"/>
<path d="M159.757 36.8947V10.8834H166.491V12.9589C167.461 12.1375 168.566 11.4953 169.755 11.0617C171.013 10.6214 172.336 10.4019 173.666 10.4127C175.014 10.3601 176.358 10.5919 177.613 11.0933C178.868 11.5948 180.007 12.355 180.958 13.3261C181.91 14.2971 182.653 15.4579 183.14 16.7352C183.628 18.0125 183.849 19.3786 183.791 20.7473V36.8947H177.058V21.7173C177.089 20.9944 176.976 20.2725 176.726 19.5949C176.477 18.9172 176.095 18.2976 175.604 17.7731C175.098 17.2675 174.494 16.8735 173.831 16.6158C173.167 16.3581 172.459 16.2422 171.75 16.2754C170.7 16.2723 169.664 16.5165 168.723 16.9886C167.834 17.4306 167.067 18.0898 166.491 18.9072V36.8947H159.757Z" fill="#38352D"/>
</svg>
